<svg xmlns="http://www.w3.org/2000/svg" aria-hidden="true" overflow="hidden" style="position:absolute;width:0;height:0">
  <defs>
    <symbol id="icon-in_icon" viewBox="0 0 32 32">
      <path d="M7.25 32V10.901H.687V32H7.25zM3.933 8.079c2.117 0 3.81-1.764 3.81-3.881 0-2.046-1.694-3.74-3.81-3.74-2.046 0-3.74 1.694-3.74 3.74 0 2.117 1.694 3.881 3.74 3.881zM31.736 32h.071V20.427c0-5.645-1.27-10.02-7.903-10.02-3.175 0-5.292 1.764-6.21 3.387h-.07v-2.893h-6.28V32h6.562V21.556c0-2.752.494-5.363 3.881-5.363s3.458 3.105 3.458 5.575V32h6.492z"/>
    </symbol>
    <symbol id="icon-yotube_icon" viewBox="0 0 45 32">
      <path d="M43.664 5.831c-.486-1.944-2.025-3.484-3.889-3.97C36.291.889 22.518.889 22.518.889s-13.854 0-17.338.972c-1.863.486-3.403 2.025-3.889 3.97C.319 9.234.319 16.526.319 16.526s0 7.211.972 10.694c.486 1.944 2.025 3.403 3.889 3.889C8.664 32 22.518 32 22.518 32s13.773 0 17.257-.891c1.863-.486 3.403-1.944 3.889-3.889.972-3.484.972-10.694.972-10.694s0-7.292-.972-10.694zM17.982 23.088V9.963l11.505 6.563-11.505 6.563z"/>
    </symbol>
    <symbol id="icon-tw_icon" viewBox="0 0 37 32">
      <path d="M33.469 8.283c1.458-1.094 2.771-2.406 3.792-3.938-1.312.583-2.844 1.021-4.375 1.167 1.604-.948 2.771-2.406 3.354-4.229-1.458.875-3.135 1.531-4.812 1.896C29.97 1.648 28.001.773 25.813.773c-4.229 0-7.656 3.427-7.656 7.656 0 .583.073 1.167.219 1.75-6.344-.365-12.031-3.427-15.823-8.021-.656 1.094-1.021 2.406-1.021 3.865 0 2.625 1.313 4.958 3.427 6.344-1.24-.073-2.479-.365-3.5-.948v.073c0 3.719 2.625 6.781 6.125 7.511-.583.146-1.313.292-1.969.292-.51 0-.948-.073-1.458-.146.948 3.063 3.792 5.25 7.146 5.323-2.625 2.042-5.906 3.281-9.479 3.281-.656 0-1.24-.073-1.823-.146 3.354 2.187 7.365 3.427 11.74 3.427 14.073 0 21.729-11.594 21.729-21.729V8.284z"/>
    </symbol>
    <symbol id="icon-fb_icon" viewBox="0 0 32 32">
      <path d="M31.5 16.343c0-8.563-6.938-15.5-15.5-15.5S.5 7.781.5 16.343c0 7.75 5.625 14.188 13.063 15.312V20.843H9.625v-4.5h3.938v-3.375c0-3.875 2.313-6.063 5.812-6.063 1.75 0 3.5.313 3.5.313v3.813h-1.937c-1.938 0-2.562 1.187-2.562 2.438v2.875h4.313l-.688 4.5h-3.625v10.812c7.437-1.125 13.125-7.562 13.125-15.312z"/>
    </symbol>
    <symbol id="icon-pencil_alt_icon" viewBox="0 0 32 32">
      <path d="m31.119 8.881-2.881 2.881c-.294.294-.769.294-1.063 0l-6.938-6.937c-.294-.294-.294-.769 0-1.063L23.118.881c1.169-1.169 3.069-1.169 4.244 0l3.756 3.756c1.175 1.169 1.175 3.069 0 4.244zM17.762 6.237 1.349 22.649.024 30.243c-.181 1.025.713 1.913 1.738 1.738l7.594-1.331 16.412-16.412c.294-.294.294-.769 0-1.063L18.83 6.238c-.3-.294-.775-.294-1.069 0zM7.756 21.244c-.344-.344-.344-.894 0-1.238l9.625-9.625c.344-.344.894-.344 1.238 0s.344.894 0 1.238l-9.625 9.625c-.344.344-.894.344-1.237 0zM5.5 26.5h3v2.269l-4.031.706-1.944-1.944.706-4.031H5.5v3z"/>
    </symbol>
    <symbol id="icon-book_reader_icon" viewBox="0 0 32 32">
      <path d="M22 6c0-3.314-2.686-6-6-6s-6 2.686-6 6 2.686 6 6 6 6-2.686 6-6zm-7.401 9.069c-3.708-2.27-9.714-2.894-12.737-3.066-1.016-.057-1.863.716-1.863 1.693v13.925c0 .896.724 1.643 1.656 1.691 2.729.143 8.249.667 12.065 2.589.586.295 1.28-.107 1.28-.742V15.785c-.001-.292-.145-.559-.401-.716zm15.538-3.066c-3.022.171-9.029.796-12.736 3.066-.256.157-.401.435-.401.727v15.362c0 .637.696 1.039 1.284.744 3.815-1.92 9.333-2.444 12.061-2.588.931-.049 1.656-.796 1.656-1.691V13.697c-.001-.977-.848-1.751-1.863-1.693z"/>
    </symbol>
    <symbol id="icon-university_icon" viewBox="0 0 32 32">
      <path d="M31 8v1c0 .133-.053.26-.146.354s-.221.146-.354.146H29v.75c0 .414-.336.75-.75.75H3.75c-.414 0-.75-.336-.75-.75V9.5H1.5c-.133 0-.26-.053-.354-.146S1 9.133 1 9V8c0-.099.029-.196.084-.278s.133-.146.224-.184l14.5-5.5a.496.496 0 0 1 .382 0l14.5 5.5c.091.038.169.102.224.184s.084.179.084.278zm-1.5 19h-27c-.828 0-1.5.672-1.5 1.5v1c0 .133.053.26.146.354S1.367 30 1.5 30h29c.133 0 .26-.053.354-.146S31 29.633 31 29.5v-1c0-.828-.672-1.5-1.5-1.5zM6 12v12H3.75c-.414 0-.75.336-.75.75V26h26v-1.25c0-.414-.336-.75-.75-.75H26V12h-4v12h-4V12h-4v12h-4V12H6z"/>
    </symbol>
    <symbol id="icon-arrow_btn_icon" viewBox="0 0 16 32">
      <path d="m14.019 17.062-8.5 8.5c-.588.588-1.538.588-2.119 0L1.987 24.15c-.587-.588-.587-1.538 0-2.119l6.025-6.025-6.025-6.025c-.587-.588-.587-1.537 0-2.119l1.406-1.425c.587-.588 1.537-.588 2.119 0l8.5 8.5c.594.588.594 1.538.006 2.125z"/>
    </symbol>
    <symbol id="icon-logo_icon" viewBox="0 0 37 32">
      <path d="M33.831 3.661c-3.419.194-10.215.902-14.41 3.474-.29.178-.454.493-.454.823V30.7c0 .722.788 1.178 1.453.843 4.316-2.176 10.559-2.77 13.645-2.932 1.054-.056 1.873-.902 1.873-1.916V5.58c.001-1.107-.958-1.984-2.107-1.919zM16.517 7.135C12.322 4.563 5.526 3.856 2.107 3.661.958 3.596-.001 4.473-.001 5.58v21.116c0 1.015.819 1.861 1.873 1.916 3.088.162 9.333.757 13.65 2.934.663.334 1.448-.121 1.448-.841V7.947c0-.331-.163-.634-.454-.812z"/>
    </symbol>
  </defs>
</svg>
